<svg xmlns="http://www.w3.org/2000/svg" viewBox="0 0 24 24" width="24" height="24" fill="#25D366">
  <path d="M12.031 21c-1.566 0-3.093-.42-4.426-1.216l-.317-.188-3.284.862.876-3.2-.206-.328A8.932 8.932 0 0 1 3.098 12c0-4.945 4.026-8.973 8.974-8.973 2.396 0 4.647.933 6.338 2.628 1.691 1.692 2.623 3.945 2.623 6.342 0 4.946-4.025 8.975-8.973 8.975h-.029zM12.031 1.5c-5.783 0-10.485 4.703-10.486 10.487 0 1.849.483 3.655 1.402 5.242L1.5 22.5l5.411-1.42c1.536.84 3.275 1.282 5.091 1.283h.028c5.783 0 10.485-4.704 10.486-10.488 0-2.802-1.091-5.437-3.073-7.418C17.462 2.593 14.829 1.5 12.031 1.5zm5.748 14.22c-.314-.881-1.558-1.505-1.558-1.505-.286-.143-1.691-.834-1.954-.93-.263-.095-.454-.143-.645.143-.19.286-.74 1.05-.906 1.264-.167.215-.333.239-.62.096-.286-.144-1.206-.445-2.296-1.417-.847-.756-1.42-1.691-1.587-1.977-.167-.286-.018-.44.125-.583.13-.13.286-.334.429-.5.143-.167.19-.286.286-.477.095-.19.048-.358-.024-.5-.071-.143-.644-1.553-.883-2.126-.231-.557-.466-.481-.645-.489-.166-.008-.357-.01-.548-.01-.19 0-.5.072-.763.358-.262.286-1.002.978-1.002 2.384 0 1.407 1.026 2.766 1.169 2.957.143.19 2.016 3.078 4.882 4.316 2.865 1.237 2.865.823 3.39.776.524-.048 1.691-.692 1.93-1.359.239-.668.239-1.24.167-1.359-.071-.119-.262-.19-.548-.334z"></path>
</svg>