<svg xmlns="http://www.w3.org/2000/svg" viewBox="0 0 36 36" width="36" height="36">
  <defs>
    <linearGradient id="metaGradient" x1="0%" x2="100%" y1="0%" y2="100%">
      <stop offset="0%" stop-color="#0668E1"></stop>
      <stop offset="100%" stop-color="#00C6FF"></stop>
    </linearGradient>
  </defs>
  <g fill="url(#metaGradient)">
    <path d="M28.5,14c-1.8,0-3.4,0.6-4.7,1.6c-0.6-2-2.5-3.6-4.8-3.6H17v8h2v-8c1.1,0,2,0.9,2,2v6h2v-6c0-1.1,0.9-2,2-2 s2,0.9,2,2v6h2v-6C29,15.6,28.8,14,28.5,14z"></path>
    <path d="M12.5,14c-1.8,0-3.4,0.6-4.7,1.6c-0.6-2-2.5-3.6-4.8-3.6H1v8h2v-8c1.1,0,2,0.9,2,2v6h2v-6c0-1.1,0.9-2,2-2 s2,0.9,2,2v6h2v-6C13,15.6,12.8,14,12.5,14z"></path>
    <path d="M18,34C9.2,34,2,26.8,2,18S9.2,2,18,2s16,7.2,16,16S26.8,34,18,34z M18,4C10.3,4,4,10.3,4,18s6.3,14,14,14s14-6.3,14-14 S25.7,4,18,4z"></path>
  </g>
</svg>